<?xml version="1.0" encoding="UTF-8" standalone="no"?>
<!DOCTYPE svg PUBLIC "-//W3C//DTD SVG 1.1//EN" "http://www.w3.org/Graphics/SVG/1.1/DTD/svg11.dtd">
<svg xmlns="http://www.w3.org/2000/svg" version="1.1" viewBox="0 0 687 1069" width="687.0pt" height="1069.0pt">
<path d="M 0.00 0.00 L 687.00 0.00 L 687.00 817.59 C 684.51 819.22 682.04 820.79 679.92 822.89 C 669.54 833.21 659.51 843.83 649.46 854.47 C 645.52 858.82 641.60 862.62 638.81 867.84 C 642.62 867.62 644.64 866.79 647.47 864.41 C 656.15 856.74 664.36 848.67 672.09 840.04 C 677.67 833.11 683.03 825.66 687.00 817.69 L 687.00 1069.00 L 0.00 1069.00 L 0.00 0.00 Z" fill="#ffffff" />
<path d="M 461.03 2.26 C 465.21 1.98 469.33 1.91 473.44 2.84 C 477.35 5.53 481.40 7.84 484.86 11.14 C 491.04 16.90 497.19 22.94 502.23 29.74 C 504.63 33.33 506.93 36.98 509.45 40.50 C 511.41 44.59 513.51 48.56 515.21 52.77 C 519.11 63.21 520.69 73.97 522.07 84.97 C 523.23 89.78 524.34 94.01 524.05 99.05 C 525.97 119.35 524.72 139.41 521.42 159.48 C 520.62 162.15 520.30 164.63 520.19 167.43 C 519.75 168.16 519.31 168.89 518.87 169.62 C 518.33 176.46 514.71 181.25 512.84 187.65 C 507.90 197.47 501.97 206.40 494.57 214.54 C 483.73 226.35 472.27 237.69 459.99 248.00 C 456.46 250.70 453.03 251.13 449.20 248.62 C 449.55 246.72 451.04 245.63 452.32 244.30 C 463.48 233.66 474.85 223.74 485.20 212.22 C 494.22 201.82 501.50 189.95 506.03 176.92 C 506.97 174.38 507.11 171.68 508.18 169.17 C 509.74 165.26 510.29 160.75 511.09 156.60 C 512.88 146.55 512.09 137.12 512.48 127.00 C 512.78 119.99 512.29 113.01 512.32 106.00 C 512.34 100.05 511.97 94.08 511.20 88.17 C 510.28 82.87 509.87 76.95 507.99 71.91 C 506.93 69.23 507.17 66.46 506.35 63.73 C 503.64 54.29 498.20 45.44 492.58 37.46 C 485.84 28.69 480.65 19.91 471.14 13.84 C 468.60 11.77 464.48 12.73 461.38 12.58 C 457.08 17.33 456.23 22.94 454.87 28.97 C 452.83 39.37 450.63 49.74 448.27 60.08 C 444.17 77.95 440.63 95.95 436.52 113.81 C 434.41 122.92 431.58 131.82 429.23 140.85 C 424.06 157.18 417.81 173.07 410.58 188.59 C 404.16 201.66 397.98 215.00 390.50 227.49 C 388.39 231.39 384.69 232.22 380.77 233.39 C 382.02 226.89 385.11 221.72 387.82 215.79 C 392.16 206.12 397.74 197.24 401.27 187.18 C 404.71 179.75 407.00 171.87 410.49 164.48 C 413.39 158.03 415.47 151.41 418.04 144.85 C 420.66 138.25 421.61 130.95 423.42 123.97 C 425.42 112.84 428.14 101.87 430.28 90.77 C 431.18 84.76 432.82 79.12 432.34 72.97 C 430.70 72.43 428.25 70.18 426.70 71.71 C 422.27 74.81 419.87 80.67 417.18 85.23 C 414.59 89.65 412.79 94.37 410.96 99.14 C 404.13 114.86 396.27 130.19 388.67 145.55 C 382.61 157.88 376.48 169.82 371.96 182.86 C 370.35 188.69 367.77 194.62 364.83 199.91 C 363.37 202.74 360.09 202.58 357.35 203.02 C 358.73 195.74 361.85 189.39 364.35 182.49 C 367.05 175.00 370.71 167.97 373.69 160.59 C 382.65 140.70 392.26 121.08 400.98 101.08 C 413.73 73.85 425.22 45.16 440.20 19.16 C 442.15 15.86 444.67 13.07 446.84 9.93 C 448.19 8.03 449.43 5.97 451.43 4.68 C 454.46 2.94 457.61 2.66 461.03 2.26 Z" fill="#000000" />
<path d="M 64.15 29.55 C 69.22 29.45 75.54 28.28 79.17 32.77 C 86.95 42.32 93.02 53.43 98.61 64.37 C 111.68 88.08 123.40 112.54 135.11 136.94 C 137.62 143.61 141.05 149.92 143.95 156.43 C 145.57 161.78 148.08 166.50 150.15 171.70 C 152.87 178.08 154.63 184.56 156.42 191.23 C 157.23 194.39 156.81 197.41 156.21 200.55 C 154.34 200.62 152.47 200.68 150.60 200.69 C 148.54 196.22 146.40 191.63 145.16 186.85 C 143.66 180.34 139.40 175.20 137.17 168.82 C 134.59 161.69 130.92 155.12 127.90 148.19 C 124.63 139.62 121.28 131.11 116.98 122.99 C 111.44 112.79 106.94 101.85 99.96 92.63 C 98.38 92.60 96.80 92.57 95.21 92.54 C 92.79 95.60 92.31 99.17 91.85 102.93 C 91.40 107.46 92.65 111.58 92.93 116.04 C 93.32 121.77 94.67 127.26 94.68 133.01 C 95.06 139.34 96.32 145.65 96.42 152.00 C 96.60 158.52 97.93 164.82 99.72 171.06 C 100.49 180.82 102.28 190.81 106.09 199.88 C 106.70 201.41 106.96 202.99 107.29 204.60 C 109.73 210.15 111.00 216.26 113.19 221.97 C 114.71 226.53 116.97 230.78 118.60 235.28 C 119.80 238.45 119.50 241.48 119.45 244.79 C 116.47 244.93 113.48 244.94 110.49 244.91 C 105.10 235.79 102.40 225.86 98.99 215.93 C 97.80 211.93 96.47 207.98 95.45 203.93 C 93.96 198.16 91.60 192.64 90.05 186.89 C 87.68 178.88 87.01 170.24 86.14 161.96 C 84.28 148.52 82.86 135.48 81.39 122.04 C 81.19 115.30 79.68 108.71 79.48 101.99 C 78.44 88.78 76.16 75.77 72.55 63.01 C 70.84 56.01 68.24 47.84 62.85 42.77 C 60.15 42.95 56.19 42.06 54.14 44.13 C 48.95 48.66 45.75 55.68 42.73 61.73 C 38.70 69.50 35.78 77.43 32.66 85.60 C 29.49 93.95 27.66 102.57 25.02 111.08 C 21.96 121.19 19.90 131.33 17.61 141.62 C 15.82 148.63 14.64 155.76 14.36 163.00 C 12.80 177.07 12.94 191.53 15.30 205.51 C 18.98 218.92 25.05 232.09 31.89 244.17 C 36.60 252.32 41.65 260.01 48.08 266.91 C 53.17 272.06 58.19 277.52 63.92 281.96 C 70.69 286.48 76.81 292.15 82.26 298.18 C 82.24 301.79 81.04 304.00 79.04 306.87 C 74.49 305.40 70.28 303.20 65.66 301.91 C 54.92 298.88 44.19 298.53 33.65 294.32 C 27.74 291.86 21.03 289.87 15.74 286.21 C 13.90 285.10 14.45 283.38 14.09 281.54 C 20.50 282.47 26.53 284.67 32.85 285.95 C 37.04 286.46 40.93 287.08 44.39 284.14 C 44.04 281.72 44.20 279.61 42.33 277.79 C 37.47 272.75 33.17 267.40 29.23 261.62 C 22.32 251.92 16.03 241.51 11.53 230.46 C 9.15 224.86 6.28 218.96 4.76 213.06 C 3.46 208.39 3.38 203.36 2.70 198.50 C 1.48 191.17 2.17 183.43 2.07 176.00 C 1.97 172.32 2.52 168.72 2.94 165.08 C 3.43 149.56 7.63 133.57 11.53 118.55 C 16.36 99.00 22.23 78.59 31.68 60.71 C 34.71 54.93 38.64 49.87 43.37 45.37 C 49.54 39.30 55.29 31.60 64.15 29.55 Z" fill="#000000" />
<path d="M 350.76 114.13 C 348.42 123.74 343.38 131.13 338.61 139.59 C 333.41 147.08 328.95 155.02 323.82 162.55 C 322.18 165.28 320.42 167.91 318.65 170.56 C 313.26 178.24 308.40 186.27 302.88 193.87 C 299.76 198.39 296.64 204.15 291.60 206.75 C 290.63 206.13 289.66 205.51 288.69 204.89 C 288.97 202.51 288.93 200.31 290.08 198.16 C 293.16 192.20 297.48 186.80 301.12 181.14 C 313.90 163.23 326.65 145.39 339.52 127.54 C 342.89 122.69 346.19 117.96 350.76 114.13 Z" fill="#000000" />
<path d="M 319.97 118.42 L 319.68 119.04 C 319.49 119.43 319.30 119.82 319.10 120.20 C 307.64 140.66 293.18 159.64 279.94 178.96 C 274.88 185.98 270.18 192.92 264.39 199.41 C 262.44 201.51 259.98 202.30 257.37 203.27 C 256.86 196.77 260.50 192.73 263.75 187.66 C 269.00 179.10 275.08 171.15 280.74 162.88 C 285.19 156.97 290.13 151.46 294.53 145.52 C 302.82 136.12 310.18 126.54 319.97 118.42 Z" fill="#000000" />
<path d="M 290.31 119.85 C 283.39 132.87 273.75 145.16 264.95 156.96 C 255.58 168.98 246.53 181.20 237.42 193.41 C 234.28 197.29 231.20 202.51 226.94 205.17 C 225.10 206.32 222.97 205.46 221.00 205.19 C 223.62 199.87 227.15 195.25 230.45 190.37 C 245.46 169.89 261.80 150.60 278.33 131.35 C 282.34 127.24 285.68 123.16 290.31 119.85 Z" fill="#000000" />
<path d="M 249.64 124.61 C 245.32 135.80 238.13 146.28 231.52 156.24 C 223.41 167.68 216.53 179.73 210.23 192.25 C 206.80 199.26 203.85 208.22 197.82 213.45 C 196.64 212.20 195.06 210.86 194.42 209.24 C 193.97 204.49 197.28 199.42 199.24 195.21 C 202.61 188.08 206.41 181.39 210.71 174.79 C 218.43 161.93 227.46 150.54 236.94 138.97 C 241.28 134.16 244.55 128.75 249.64 124.61 Z" fill="#000000" />
<path d="M 216.00 135.31 C 215.49 140.10 212.90 143.47 210.55 147.49 C 208.19 151.42 205.64 155.23 203.11 159.05 C 196.29 169.91 190.24 181.24 184.86 192.87 C 182.75 198.91 179.88 204.55 177.49 210.47 C 174.07 220.18 170.10 229.45 168.49 239.71 C 166.90 239.71 165.31 239.69 163.72 239.66 C 162.71 235.84 163.41 232.33 164.52 228.64 C 170.15 209.23 178.17 190.39 187.36 172.41 C 194.68 158.99 204.07 145.04 216.00 135.31 Z" fill="#000000" />
<path d="M 349.45 155.26 C 350.73 161.27 348.67 166.19 346.96 171.80 C 345.33 177.08 342.44 181.77 340.78 187.03 C 340.48 187.48 340.17 187.93 339.86 188.39 C 336.69 194.95 333.11 201.75 328.17 207.17 C 326.37 208.85 323.66 211.71 321.13 209.71 C 319.56 209.40 320.35 207.58 320.58 206.54 C 322.39 201.43 325.17 196.72 328.29 192.30 C 331.75 186.77 335.34 181.33 338.75 175.77 C 342.75 169.18 345.20 161.68 349.45 155.26 Z" fill="#000000" />
<path d="M 305.85 241.11 C 302.95 246.79 297.41 251.40 292.01 254.63 C 295.09 249.18 299.84 243.38 305.85 241.11 Z" fill="#000000" />
<path d="M 490.94 242.51 C 492.15 243.22 493.29 244.03 494.43 244.84 C 491.12 248.17 487.32 250.76 483.67 253.69 C 475.96 259.32 468.33 265.25 460.34 270.35 C 456.58 272.69 451.44 274.40 447.09 272.81 C 447.18 271.48 447.09 270.28 448.18 269.31 C 451.24 266.31 455.00 263.96 458.54 261.58 C 466.65 256.68 474.76 251.97 482.54 246.55 C 485.04 244.96 487.96 242.89 490.94 242.51 Z" fill="#000000" />
<path d="M 345.51 253.62 C 348.55 252.70 351.35 253.37 354.27 254.30 C 348.10 257.95 341.33 259.90 334.46 262.37 C 332.16 263.24 329.74 262.18 327.48 261.69 C 332.75 257.08 338.92 255.47 345.51 253.62 Z" fill="#000000" />
<path d="M 208.73 259.35 C 203.46 261.06 197.06 262.08 191.52 261.97 C 197.04 260.28 202.96 259.47 208.73 259.35 Z" fill="#000000" />
<path d="M 304.05 264.69 C 302.19 267.28 299.93 269.40 297.39 271.31 C 299.01 267.53 300.22 266.21 304.05 264.69 Z" fill="#000000" />
<path d="M 148.75 272.87 C 154.05 272.69 159.91 270.91 164.64 273.90 C 159.17 275.69 153.43 276.26 147.95 278.05 C 143.44 279.37 139.89 281.76 135.07 281.90 C 134.36 280.89 133.65 279.88 132.94 278.86 C 137.73 275.14 143.11 274.44 148.75 272.87 Z" fill="#000000" />
<path d="M 357.74 274.78 C 361.24 274.38 364.37 274.00 367.58 275.84 C 364.16 278.21 360.02 279.52 355.99 280.40 C 353.02 280.43 349.97 278.69 347.18 277.83 C 350.49 275.57 353.97 275.67 357.74 274.78 Z" fill="#000000" />
<path d="M 476.67 278.02 C 479.89 277.91 482.71 279.06 485.53 280.46 C 481.23 285.52 474.19 287.22 468.04 289.18 C 462.49 290.17 456.91 293.51 451.46 292.32 C 452.34 289.97 453.24 287.89 455.46 286.51 C 461.64 282.50 469.84 280.60 476.67 278.02 Z" fill="#000000" />
<path d="M 181.81 281.46 C 179.39 283.85 178.45 283.94 175.21 283.20 C 177.42 282.23 179.39 281.58 181.81 281.46 Z" fill="#000000" />
<path d="M 312.53 282.53 C 312.17 284.45 310.55 285.60 308.68 285.83 C 309.16 283.93 310.52 282.61 312.53 282.53 Z" fill="#000000" />
<path d="M 386.55 288.79 C 386.65 289.65 386.74 290.50 386.83 291.36 C 383.72 291.32 380.62 291.23 377.51 291.03 C 380.80 288.15 382.27 288.03 386.55 288.79 Z" fill="#000000" />
<path d="M 132.97 299.65 C 134.20 300.00 135.43 300.34 136.66 300.67 C 136.71 301.34 136.76 302.01 136.80 302.68 C 134.62 303.40 132.24 304.26 129.93 304.29 C 128.05 303.86 126.50 302.89 124.87 301.93 C 127.43 300.62 130.17 300.18 132.97 299.65 Z" fill="#000000" />
<path d="M 21.04 304.62 C 23.78 304.24 26.38 303.91 29.07 304.78 C 32.60 305.97 35.70 308.05 39.32 309.07 C 43.46 310.55 47.37 311.05 50.52 314.06 C 48.15 315.36 45.83 316.38 43.07 316.18 C 36.24 315.85 28.51 314.14 23.00 309.90 C 20.96 308.56 21.39 306.74 21.04 304.62 Z" fill="#000000" />
<path d="M 434.00 311.07 C 440.37 311.00 446.51 311.67 452.21 314.74 C 458.18 317.91 464.69 322.08 467.50 328.52 C 469.26 331.91 468.81 335.28 468.89 339.00 C 468.73 341.20 469.22 343.84 467.58 345.56 C 464.24 349.34 458.61 351.40 456.03 356.00 C 453.55 360.26 453.32 366.12 452.83 370.96 C 452.78 377.05 451.66 382.98 451.16 389.03 C 450.92 395.39 449.65 401.68 448.93 408.01 C 447.87 414.76 446.61 421.87 442.46 427.49 C 439.94 430.89 436.95 434.07 433.48 436.50 C 428.94 439.52 423.47 440.15 418.23 441.22 C 408.10 442.76 397.30 444.81 387.00 444.58 C 381.00 444.57 375.00 444.61 368.99 444.58 C 359.27 444.54 349.35 439.69 341.13 434.81 C 331.95 428.20 323.46 420.48 315.04 412.95 C 305.72 404.18 295.00 396.84 284.70 389.28 C 277.57 384.50 270.84 378.90 263.48 374.52 C 259.49 372.22 255.44 372.43 251.00 372.44 C 245.81 372.46 240.68 373.03 235.76 374.74 C 227.02 377.93 218.81 381.55 211.64 387.62 C 202.66 396.02 194.59 405.25 186.84 414.78 C 181.49 422.24 176.55 430.22 173.05 438.72 C 169.13 446.83 164.42 454.74 158.65 461.67 C 151.58 468.94 142.38 469.01 132.98 470.22 C 123.30 471.47 113.79 472.48 104.01 471.70 C 96.36 471.26 88.70 469.41 81.05 468.65 C 76.56 468.39 71.92 468.10 67.79 466.16 C 64.41 464.54 62.31 461.26 61.07 457.84 C 59.27 451.62 57.90 445.34 56.51 439.02 C 53.41 423.31 49.01 407.93 45.81 392.24 C 43.31 384.68 44.24 375.75 41.45 368.52 C 37.85 362.25 30.69 358.19 27.00 351.93 C 24.70 347.49 27.87 341.29 31.35 338.31 C 36.49 333.58 43.37 333.63 50.00 333.18 C 62.68 333.26 75.33 333.07 88.01 332.85 C 100.90 333.91 114.23 332.06 126.96 334.09 C 135.96 334.35 144.99 334.07 154.00 334.18 C 160.03 334.35 165.95 333.22 171.98 333.28 C 191.28 332.66 210.29 329.90 229.34 326.86 C 231.92 325.88 234.21 325.43 236.97 325.36 C 241.45 325.34 245.50 323.44 250.00 323.55 C 253.72 323.59 257.28 322.74 260.97 322.50 C 273.06 321.94 284.96 320.13 297.08 320.02 C 308.60 318.46 320.38 319.47 332.03 317.05 C 340.63 315.48 349.32 314.92 357.95 313.68 C 363.28 313.12 368.65 313.14 373.98 312.49 C 382.30 311.49 390.62 312.12 399.00 311.59 C 410.67 310.86 422.32 311.23 434.00 311.07 Z" fill="#000000" />
<path d="M 127.04 316.82 C 128.73 317.09 129.44 318.64 130.52 319.78 C 128.56 320.72 126.31 321.85 124.13 322.13 C 122.65 321.85 121.48 321.07 120.30 320.16 C 120.24 316.62 124.40 316.19 127.04 316.82 Z" fill="#000000" />
<path d="M 401.83 326.99 C 390.41 361.27 379.00 395.55 367.57 429.82 C 359.68 425.89 351.79 421.97 343.93 418.00 C 353.19 390.85 362.39 363.68 371.61 336.52 C 372.63 333.64 373.42 330.58 374.76 327.83 C 383.71 327.01 392.84 327.19 401.83 326.99 Z" fill="#ffffff" />
<path d="M 351.63 328.38 C 355.96 327.84 360.43 328.14 364.79 328.00 C 354.84 355.59 344.91 383.20 334.89 410.77 C 331.14 406.71 327.35 402.70 323.69 398.57 C 332.08 376.79 340.90 355.15 349.39 333.40 C 350.06 331.72 350.73 329.94 351.63 328.38 Z" fill="#ffffff" />
<path d="M 88.38 348.96 C 92.69 348.76 97.05 349.10 101.37 349.07 C 90.80 378.68 80.01 408.21 69.40 437.80 C 67.87 429.81 65.81 421.91 64.12 413.95 C 63.71 411.96 63.78 410.46 64.54 408.57 C 71.37 391.38 78.19 374.18 84.99 356.98 C 86.07 354.30 87.00 351.49 88.38 348.96 Z" fill="#ffffff" />
<path d="M 111.13 349.26 C 120.03 349.35 128.88 350.15 137.78 350.03 C 126.07 385.30 114.38 420.58 102.52 455.80 C 93.66 454.65 84.70 454.22 75.85 452.99 C 87.29 419.35 98.70 385.70 110.14 352.06 C 110.46 351.13 110.79 350.20 111.13 349.26 Z" fill="#ffffff" />
<path d="M 471.00 411.22 C 479.59 412.72 486.06 417.28 493.29 421.74 C 498.90 425.66 504.57 428.10 508.52 433.95 C 506.81 434.28 505.45 435.00 503.73 434.36 C 499.39 433.02 495.36 429.95 491.33 427.78 C 487.43 425.72 483.97 422.99 480.06 420.94 C 476.07 418.44 472.07 416.85 469.29 413.21 L 471.00 411.22 Z" fill="#000000" />
<path d="M 257.00 417.91 C 270.02 418.13 283.03 417.61 296.05 417.97 C 300.90 418.15 304.55 419.57 308.10 422.86 C 314.04 428.27 320.74 435.16 323.07 443.02 C 324.71 450.14 324.85 457.75 325.69 464.99 C 326.13 468.29 328.44 471.03 330.53 473.49 C 335.08 478.60 340.22 483.10 344.52 488.50 C 345.44 489.79 346.55 491.41 346.60 493.04 C 346.37 497.53 344.29 501.14 341.63 504.63 C 338.25 509.88 333.70 514.00 329.88 518.90 C 326.89 522.68 322.72 526.02 320.47 530.28 C 319.73 533.56 318.54 536.76 318.02 540.09 C 316.65 551.82 316.03 564.54 312.59 575.83 C 309.17 586.63 303.57 596.02 297.76 605.64 C 294.18 610.38 289.83 615.76 284.36 618.34 C 276.74 621.99 268.31 623.01 259.97 621.82 C 254.15 621.41 249.40 618.86 244.09 616.76 C 238.81 614.35 234.00 611.19 229.89 607.08 C 218.80 597.06 212.50 581.11 204.45 568.55 C 199.59 560.95 194.02 553.78 188.17 546.92 C 185.51 543.48 182.61 540.54 179.19 537.85 C 173.38 533.28 168.55 527.62 164.70 521.32 C 162.58 518.14 162.55 513.63 164.22 510.25 C 168.80 500.31 174.36 490.97 179.39 481.27 C 182.22 475.98 185.60 470.64 187.53 464.95 C 187.95 456.24 185.33 448.06 186.54 439.22 C 187.24 437.06 188.89 435.07 190.42 433.43 C 193.38 430.30 196.51 427.43 200.24 425.24 C 204.57 422.52 210.16 421.35 215.09 420.21 C 218.57 419.36 222.41 419.73 226.00 419.44 C 236.32 418.69 246.66 418.42 257.00 417.91 Z" fill="#000000" />
<path d="M 260.07 424.86 C 270.28 425.77 280.00 424.07 290.08 425.09 C 295.27 425.65 299.27 428.64 302.66 432.40 C 304.40 434.41 306.91 435.88 308.39 438.06 C 310.23 442.06 311.14 446.65 312.05 450.94 C 314.43 458.51 311.56 466.55 313.59 474.40 C 318.78 480.24 328.26 483.60 332.63 490.29 C 334.66 492.76 332.49 496.04 331.17 498.32 C 327.66 503.34 324.10 508.31 319.89 512.78 C 316.87 516.84 313.71 520.54 309.93 523.92 C 304.54 528.87 299.87 534.58 294.43 539.45 C 288.44 543.53 283.41 548.66 277.19 552.49 C 276.36 552.10 275.53 551.72 274.69 551.33 C 272.20 544.90 269.44 537.87 269.36 530.91 C 269.08 527.86 267.65 525.19 267.81 522.02 C 268.13 515.33 268.53 508.72 267.92 502.03 C 267.78 499.58 267.51 496.19 268.90 494.05 C 272.07 490.25 278.17 489.79 282.41 487.42 C 286.40 485.35 288.56 482.06 292.21 479.32 C 295.36 476.71 298.89 474.62 302.07 472.08 C 304.05 470.54 304.62 468.46 305.45 466.22 C 303.43 461.79 301.47 457.39 298.62 453.41 C 296.02 449.09 290.98 446.22 285.94 446.23 C 282.39 446.14 279.65 449.04 277.59 451.57 C 274.38 456.13 270.71 460.93 268.44 466.01 C 266.79 469.62 266.52 473.38 265.33 477.16 C 259.51 479.78 253.11 479.09 246.46 479.36 C 243.18 474.97 239.82 470.75 236.42 466.45 C 233.19 462.31 233.30 457.17 230.25 452.79 C 228.91 449.75 225.57 450.23 222.79 449.46 C 220.36 450.93 218.01 451.89 216.60 454.52 C 214.43 458.61 213.33 463.31 211.78 467.67 C 210.99 469.71 211.31 471.66 211.41 473.77 C 219.41 477.83 226.38 483.50 234.21 487.77 C 238.26 490.18 244.11 489.33 247.04 492.96 C 249.36 495.26 251.30 497.38 251.13 500.90 C 250.76 506.70 251.12 512.38 252.20 518.09 C 252.92 521.73 252.43 525.38 253.16 528.99 C 254.46 535.53 255.13 542.90 257.22 549.30 C 258.26 552.15 257.57 555.69 257.47 558.68 C 252.37 560.96 248.72 558.12 243.76 557.05 C 238.95 555.99 234.26 554.77 229.67 552.97 C 222.98 550.93 216.37 549.20 210.00 546.19 C 205.91 544.25 203.40 540.73 199.52 538.43 C 194.55 534.99 188.59 533.62 184.19 529.77 C 181.32 527.37 179.64 523.94 177.99 520.66 C 176.97 518.75 177.24 516.11 177.15 514.00 C 177.24 511.66 176.94 508.83 177.96 506.69 C 180.65 500.53 183.87 494.61 186.67 488.50 C 188.76 483.75 192.34 480.89 193.38 475.95 C 194.60 471.04 197.46 466.01 197.39 461.00 C 197.63 456.63 198.55 452.40 198.41 448.00 C 198.29 444.43 199.24 441.29 201.54 438.53 C 206.69 432.68 213.12 427.46 220.89 425.75 C 234.15 427.08 246.84 425.67 260.07 424.86 Z" fill="#ffffff" />
<path d="M 485.05 439.17 C 488.79 439.39 493.14 440.51 495.91 443.16 C 499.87 447.51 502.47 453.42 505.32 458.56 C 507.28 463.47 510.33 467.13 509.90 472.72 C 508.93 473.14 507.96 473.57 506.99 473.99 C 504.80 472.87 502.69 471.87 500.89 470.13 C 498.03 467.63 497.37 464.03 495.40 460.56 C 492.35 455.12 488.64 449.90 484.04 445.66 C 479.74 444.44 476.07 442.71 472.54 439.95 C 476.73 438.84 480.75 439.08 485.05 439.17 Z" fill="#000000" />
<path d="M 39.89 460.58 C 42.35 459.26 43.89 461.72 45.62 463.04 C 40.81 471.38 34.51 478.95 28.73 486.63 C 26.28 489.72 23.41 493.70 18.99 493.51 C 17.57 492.08 17.64 490.27 18.54 488.58 C 21.22 483.71 24.29 479.04 27.55 474.53 C 31.18 469.66 34.97 464.21 39.89 460.58 Z" fill="#000000" />
<path d="M 486.52 473.52 C 489.75 474.74 492.70 476.27 494.83 479.09 C 499.73 485.70 503.47 493.06 505.70 500.99 C 506.09 504.03 507.29 507.62 506.61 510.65 C 505.64 513.45 503.01 512.30 500.71 512.48 C 496.71 506.89 497.33 500.18 493.62 494.46 C 491.06 490.38 488.41 486.29 485.63 482.36 C 483.28 478.93 480.33 476.88 479.23 472.71 C 481.87 471.65 484.02 472.67 486.52 473.52 Z" fill="#000000" />
<path d="M 449.48 476.14 C 442.75 477.89 435.51 479.11 428.55 478.34 C 434.47 475.43 443.32 472.93 449.48 476.14 Z" fill="#000000" />
<path d="M 47.15 492.06 C 48.46 492.89 49.70 493.82 50.92 494.78 C 49.55 498.30 47.20 501.04 44.92 503.97 C 40.40 509.49 36.21 515.26 32.16 521.13 C 29.09 525.57 27.77 530.76 24.81 535.26 C 23.74 535.65 22.68 536.05 21.62 536.45 C 20.18 535.46 18.06 534.97 17.87 532.94 C 17.62 530.26 18.95 527.53 20.02 525.14 C 24.52 515.78 31.72 507.35 38.93 499.95 C 41.53 497.17 44.21 494.49 47.15 492.06 Z" fill="#000000" />
<path d="M 107.44 513.89 C 103.95 519.81 98.80 524.63 92.08 526.54 C 90.81 525.91 89.54 525.28 88.28 524.63 C 90.64 519.84 95.28 515.98 99.97 513.61 C 102.73 512.19 104.71 512.99 107.44 513.89 Z" fill="#000000" />
<path d="M 60.50 518.52 C 60.24 522.71 58.47 526.06 56.85 529.82 C 51.37 542.71 45.27 555.34 39.02 567.87 C 37.47 570.96 36.12 574.35 34.08 577.14 C 32.15 577.75 30.03 577.85 28.03 578.15 C 27.70 570.85 30.35 564.58 33.36 558.13 C 37.58 550.27 40.54 541.93 45.32 534.35 C 48.26 529.74 50.54 524.25 54.27 520.25 C 56.07 518.28 58.03 518.52 60.50 518.52 Z" fill="#000000" />
<path d="M 475.05 519.65 C 477.47 518.07 479.58 518.95 482.02 519.85 C 487.40 522.02 491.37 527.14 493.27 532.51 C 494.91 537.35 496.48 542.07 497.46 547.06 C 497.93 549.42 499.14 552.11 498.39 554.47 C 498.11 556.84 494.64 556.49 492.89 556.55 C 489.13 555.34 488.93 552.31 487.77 549.08 C 486.75 542.67 484.50 536.52 481.11 530.98 C 479.09 527.37 476.05 523.67 475.05 519.65 Z" fill="#000000" />
<path d="M 420.03 534.39 C 422.49 535.60 424.00 537.02 425.64 539.20 C 423.93 539.92 422.62 541.40 420.72 540.33 C 418.99 539.63 418.66 537.81 417.98 536.25 C 418.65 535.61 419.33 534.99 420.03 534.39 Z" fill="#000000" />
<path d="M 102.74 547.20 C 103.28 548.50 103.53 549.86 103.82 551.23 C 102.33 551.29 100.85 551.32 99.36 551.31 C 99.45 550.53 99.53 549.74 99.63 548.96 C 100.62 548.29 101.65 547.68 102.74 547.20 Z" fill="#000000" />
<path d="M 71.49 549.30 C 71.38 551.51 71.61 553.57 70.82 555.63 C 68.22 563.54 64.22 571.00 60.98 578.69 C 56.26 588.75 52.13 599.07 48.39 609.53 C 46.73 613.98 46.11 618.78 44.30 623.15 C 42.67 624.92 39.70 625.55 37.51 626.35 C 37.09 623.31 37.01 620.29 37.72 617.28 C 42.97 598.10 50.63 580.59 58.54 562.45 C 58.93 561.88 59.32 561.30 59.71 560.72 C 61.49 557.21 63.42 553.07 66.53 550.55 C 67.95 549.20 69.64 549.63 71.49 549.30 Z" fill="#000000" />
<path d="M 300.80 553.79 C 302.71 553.20 304.53 553.75 304.58 556.02 C 304.70 560.25 304.13 564.80 303.36 568.96 C 301.81 573.66 300.72 578.48 299.16 583.16 C 296.46 588.02 293.12 592.51 290.41 597.38 C 286.50 602.04 282.37 607.63 277.07 610.59 C 273.09 612.07 268.18 611.56 263.98 611.58 C 257.22 611.56 251.94 607.91 245.82 605.21 C 242.52 602.63 239.42 599.54 236.65 596.40 C 232.40 591.58 230.10 586.00 226.61 580.69 C 223.62 575.28 220.01 571.41 218.17 565.54 C 217.77 563.67 216.76 561.91 218.46 560.42 C 219.68 558.68 221.32 559.17 222.93 559.99 C 227.71 562.61 233.18 562.45 238.05 565.20 C 241.44 567.50 244.08 571.24 247.66 573.21 C 250.71 574.56 254.70 574.09 257.99 574.25 C 264.94 574.37 271.54 573.64 277.23 569.30 C 284.91 563.54 292.10 558.05 300.80 553.79 Z" fill="#ffffff" />
<path d="M 466.80 561.38 C 468.39 561.75 469.56 563.21 470.50 564.46 C 475.84 572.90 478.08 582.17 479.28 591.98 C 478.70 594.96 478.18 599.82 475.12 601.31 C 473.64 601.06 472.20 600.65 470.76 600.25 C 469.79 596.19 469.81 592.15 469.59 588.01 C 468.61 583.20 465.47 578.81 463.85 574.15 C 462.58 570.29 460.98 566.26 462.45 562.24 C 463.78 561.80 465.38 561.12 466.80 561.38 Z" fill="#000000" />
<path d="M 118.07 573.85 C 120.30 574.68 119.31 577.42 119.35 579.25 C 116.27 580.73 112.89 580.20 109.68 579.59 C 111.64 576.71 113.90 572.66 118.07 573.85 Z" fill="#000000" />
<path d="M 73.47 591.65 C 75.16 591.34 76.93 591.37 78.64 591.30 C 79.14 599.60 73.98 606.44 73.17 615.01 C 72.97 618.11 72.55 621.56 73.36 624.58 C 74.10 626.68 75.88 627.77 78.09 626.95 C 81.51 625.54 84.66 623.82 88.38 623.20 C 88.86 630.24 87.70 637.03 86.63 643.95 C 85.21 657.88 85.45 671.78 86.86 685.69 C 84.67 686.24 80.83 687.77 78.96 685.96 C 76.64 683.22 76.36 678.56 75.64 675.21 C 74.94 672.49 73.06 670.95 71.07 669.16 C 66.60 668.52 62.09 667.36 59.31 663.49 C 57.56 657.09 59.07 649.61 58.96 643.00 C 58.77 638.22 59.53 633.64 60.19 628.93 C 62.41 619.39 63.92 610.12 68.14 601.15 C 69.66 598.08 70.79 593.88 73.47 591.65 Z" fill="#000000" />
<path d="M 452.49 594.59 C 454.65 595.74 455.88 598.43 456.55 600.67 C 458.40 607.89 458.40 615.05 456.08 622.16 C 454.68 626.55 454.66 633.72 450.38 636.39 C 448.82 637.43 445.91 639.13 445.48 636.10 C 444.73 630.20 447.98 624.14 448.24 618.14 C 448.63 613.04 447.25 608.08 447.22 602.94 C 447.22 600.58 446.20 597.44 447.41 595.32 C 448.89 594.42 450.84 593.71 452.49 594.59 Z" fill="#000000" />
<path d="M 618.49 608.50 C 622.87 613.07 625.75 619.63 628.64 625.21 C 632.52 632.58 635.93 640.24 638.73 648.09 C 642.36 661.99 640.15 675.37 638.42 689.22 C 637.76 694.13 636.24 699.91 637.24 704.81 C 642.73 712.83 650.62 715.36 658.10 720.89 C 663.93 725.00 671.40 729.10 673.90 736.17 C 676.53 743.58 675.15 752.67 673.18 760.12 C 671.98 766.32 668.69 772.19 665.68 777.68 C 659.93 787.08 648.89 793.80 639.93 799.88 C 630.74 805.53 619.81 809.31 609.01 809.80 C 597.87 809.66 587.16 810.46 576.14 808.54 C 569.85 806.53 564.01 804.58 559.12 799.90 C 551.66 792.67 545.27 784.13 539.31 775.66 C 537.36 772.69 535.22 769.49 534.19 766.06 C 533.61 763.41 533.71 760.56 533.89 757.85 C 534.64 750.94 539.01 744.66 540.25 737.97 C 539.09 733.44 535.59 729.46 533.51 725.25 C 530.64 720.47 529.01 715.28 527.01 710.12 C 524.19 699.39 521.27 689.25 521.26 678.00 C 521.30 669.34 521.11 660.66 521.41 652.01 C 522.06 646.81 522.45 640.29 526.57 636.56 C 530.02 633.26 536.06 631.23 540.55 633.56 C 545.07 635.60 549.00 639.08 553.08 641.88 C 558.40 645.53 563.22 649.89 568.64 653.38 C 570.94 654.73 573.69 656.52 576.43 655.32 C 579.15 653.52 580.50 650.71 581.87 647.86 C 587.31 636.32 591.73 623.37 598.56 612.54 C 600.91 608.70 603.88 606.42 608.26 605.30 C 611.95 603.79 615.85 605.99 618.49 608.50 Z" fill="#000000" />
<path d="M 353.61 632.48 C 354.50 632.36 355.39 632.29 356.29 632.27 C 357.11 635.24 358.02 637.78 356.15 640.60 C 354.65 640.12 353.22 639.48 351.79 638.83 C 352.13 636.51 352.07 634.42 353.61 632.48 Z" fill="#000000" />
<path d="M 432.34 635.62 C 432.23 649.63 427.07 661.77 420.99 674.10 C 420.06 675.93 418.86 677.17 416.79 677.63 C 413.39 678.34 409.36 676.85 406.18 675.70 C 401.32 678.45 399.56 683.39 397.18 688.15 C 394.40 694.37 390.48 699.95 385.68 704.77 C 384.01 706.36 382.50 707.79 380.03 707.79 C 375.01 708.07 371.89 705.21 367.10 704.09 C 361.62 708.27 356.96 713.22 351.76 717.75 C 348.15 720.81 345.35 724.12 340.16 723.65 C 341.10 721.46 341.92 719.34 343.33 717.41 C 348.16 711.14 352.99 705.10 359.08 699.99 C 360.91 698.66 363.51 697.22 365.83 697.83 C 368.68 699.86 369.57 703.12 372.80 704.25 C 376.77 704.39 379.84 702.23 382.18 699.21 C 387.07 692.74 390.09 685.10 391.22 677.09 C 391.77 673.34 392.86 668.69 397.09 667.64 C 401.48 668.04 404.29 673.80 408.92 672.82 C 412.68 672.05 416.12 668.83 417.19 665.15 C 419.52 657.77 420.73 649.71 422.16 642.11 C 422.69 639.48 423.69 637.04 424.90 634.66 C 427.66 634.00 429.78 634.64 432.34 635.62 Z" fill="#000000" />
<path d="M 108.11 648.36 C 108.50 661.30 108.30 674.22 109.07 687.15 C 110.37 693.61 113.35 698.92 112.47 705.75 C 110.65 705.76 108.84 705.69 107.03 705.58 C 106.26 704.55 105.48 703.53 104.70 702.51 C 103.84 699.76 102.99 697.00 102.21 694.23 C 99.18 684.91 100.15 674.97 99.53 665.00 C 99.57 659.47 98.20 653.34 101.79 648.60 C 103.89 648.37 105.99 648.36 108.11 648.36 Z" fill="#000000" />
<path d="M 336.76 650.85 C 337.68 653.82 338.39 656.60 336.79 659.51 C 335.32 660.92 334.50 663.33 332.47 661.03 C 332.21 656.97 333.69 653.48 336.76 650.85 Z" fill="#000000" />
<path d="M 298.23 666.09 C 299.38 672.21 298.33 678.04 295.53 683.55 C 292.73 688.51 289.93 693.85 286.02 698.04 C 284.38 699.88 282.25 700.29 279.95 700.90 C 282.20 693.17 288.22 686.95 291.29 679.47 C 293.52 675.25 294.47 669.13 298.23 666.09 Z" fill="#000000" />
<path d="M 209.11 669.53 C 205.07 675.03 198.55 679.70 191.87 681.26 C 193.72 678.65 195.88 676.37 198.53 674.55 C 202.00 672.29 204.74 669.75 209.11 669.53 Z" fill="#000000" />
<path d="M 233.05 672.91 C 232.31 675.42 231.25 677.62 229.77 679.76 C 226.05 685.18 221.68 690.51 216.45 694.54 C 214.65 695.84 212.46 694.78 210.46 694.58 C 214.23 688.88 219.23 683.87 223.98 678.98 C 226.89 676.25 228.67 673.16 233.05 672.91 Z" fill="#000000" />
<path d="M 316.69 673.22 C 315.21 676.72 313.93 679.84 310.64 682.04 C 312.04 678.47 313.65 675.64 316.69 673.22 Z" fill="#000000" />
<path d="M 254.28 675.28 C 251.64 682.64 246.14 686.56 240.50 691.48 C 236.10 694.99 232.78 698.86 227.41 700.97 C 231.30 695.30 236.96 690.65 241.85 685.85 C 245.77 682.21 249.71 678.04 254.28 675.28 Z" fill="#000000" />
<path d="M 274.34 677.01 C 270.74 683.54 265.74 688.36 260.71 693.74 C 258.21 696.38 255.57 698.86 252.44 700.76 C 254.35 696.14 258.36 692.41 261.73 688.75 C 265.89 684.56 269.32 680.26 274.34 677.01 Z" fill="#000000" />
<path d="M 132.73 679.75 C 134.36 681.38 135.88 682.96 136.68 685.17 C 139.28 692.09 141.31 699.22 143.92 706.14 C 145.40 710.12 147.89 713.41 149.72 717.21 C 147.93 719.05 146.39 720.81 143.56 720.34 C 140.74 720.08 139.43 718.16 138.26 715.83 C 136.52 712.14 135.02 708.28 133.61 704.46 C 131.80 698.00 128.59 692.94 129.28 685.94 C 129.29 682.77 130.10 681.43 132.73 679.75 Z" fill="#000000" />
<path d="M 422.35 690.37 C 422.46 692.24 422.51 694.10 422.45 695.97 C 416.68 708.69 409.38 720.20 402.08 732.05 C 399.99 735.10 397.93 738.89 394.90 741.06 C 391.98 740.23 394.50 737.90 394.99 736.04 C 401.55 722.90 409.76 710.62 416.72 697.69 C 418.22 694.91 420.00 692.49 422.35 690.37 Z" fill="#000000" />
<path d="M 166.02 699.24 C 170.68 701.00 171.99 704.98 173.82 709.17 C 176.43 715.82 182.11 720.16 187.38 724.64 C 188.70 726.01 190.36 726.74 189.89 728.94 C 187.51 730.70 183.67 728.86 181.40 727.60 C 177.01 724.90 172.29 722.00 168.91 718.06 C 165.02 713.13 162.18 707.76 163.17 701.26 C 164.10 700.56 165.05 699.88 166.02 699.24 Z" fill="#000000" />
<path d="M 430.02 713.24 C 432.16 713.03 433.98 714.17 434.76 716.15 C 434.79 720.32 433.11 724.73 431.55 728.53 C 429.75 733.63 428.21 738.95 427.66 744.34 C 423.06 748.99 420.60 755.70 417.42 761.46 C 413.97 767.68 411.39 774.61 407.32 780.44 C 405.48 782.89 402.83 782.13 400.27 781.63 C 402.79 769.88 408.73 758.46 413.44 747.47 C 416.69 738.12 421.74 729.59 424.93 720.19 C 425.83 717.25 427.23 714.76 430.02 713.24 Z" fill="#000000" />
<path d="M 108.49 724.53 C 117.53 733.68 126.46 743.47 136.70 751.29 C 141.89 755.80 147.53 758.68 152.13 763.73 C 148.75 763.84 145.76 762.81 142.80 761.22 C 133.25 756.16 124.29 749.91 116.02 742.96 C 110.65 738.01 105.16 732.89 101.21 726.78 C 100.19 725.09 99.08 723.66 99.40 721.58 C 103.15 720.35 105.88 721.97 108.49 724.53 Z" fill="#000000" />
<path d="M 439.99 740.35 C 442.99 740.62 444.44 742.97 444.26 745.83 C 443.83 750.71 441.63 755.53 440.13 760.19 C 436.50 771.20 431.90 781.81 427.46 792.51 C 423.18 801.60 419.24 811.28 413.70 819.67 C 412.58 821.33 409.67 823.99 407.65 822.35 C 405.27 821.60 406.22 817.65 406.80 815.90 C 409.83 808.52 413.67 801.59 416.05 793.93 C 421.84 780.89 426.15 767.39 430.67 753.87 C 431.47 751.28 432.54 749.04 431.91 746.25 C 434.53 744.32 436.96 741.53 439.99 740.35 Z" fill="#000000" />
<path d="M 87.16 749.17 C 90.69 749.04 93.79 749.14 96.77 751.23 C 103.06 755.54 108.43 761.10 114.83 765.31 C 124.27 772.17 133.91 777.43 142.42 785.61 C 145.03 788.20 148.63 791.04 149.74 794.64 C 145.07 794.45 141.07 790.21 137.39 787.63 C 130.36 782.06 122.67 777.64 115.01 773.02 C 108.77 769.77 103.35 765.49 97.80 761.21 C 93.53 757.88 89.78 753.95 87.16 749.17 Z" fill="#000000" />
<path d="M 213.39 766.83 C 218.06 768.32 222.10 770.99 225.52 774.48 C 230.32 779.39 235.47 783.76 239.18 789.45 C 230.80 784.78 224.16 776.23 216.51 770.44 C 215.14 769.44 214.24 768.29 213.39 766.83 Z" fill="#000000" />
<path d="M 341.55 772.02 C 337.10 777.56 331.22 783.15 325.42 787.25 C 330.20 781.69 335.93 776.72 341.55 772.02 Z" fill="#000000" />
<path d="M 452.54 779.68 C 453.90 779.75 455.27 780.16 456.59 780.46 C 456.51 782.76 456.46 785.10 455.87 787.33 C 453.05 797.30 448.50 806.03 444.78 815.64 C 436.28 834.65 428.88 853.60 418.73 871.81 C 416.86 875.23 413.92 874.45 410.72 873.69 C 411.33 868.11 414.04 863.72 416.04 858.22 C 426.51 833.55 437.18 808.77 448.56 784.50 C 449.61 782.54 450.39 780.65 452.54 779.68 Z" fill="#000000" />
<path d="M 94.39 783.20 C 100.99 781.57 104.98 786.93 108.58 791.45 C 114.19 799.41 120.27 806.92 127.29 813.68 C 131.61 818.07 136.27 821.09 139.09 826.68 C 133.73 827.14 130.71 824.02 126.60 821.28 C 118.64 816.17 112.13 808.21 105.52 801.48 C 101.57 796.64 96.76 791.53 94.21 785.87 C 94.18 784.98 94.24 784.09 94.39 783.20 Z" fill="#000000" />
<path d="M 519.12 786.69 C 521.27 787.42 523.09 788.71 524.70 790.29 C 531.40 796.75 537.18 804.69 542.89 812.06 C 545.54 815.79 548.29 819.27 550.32 823.40 C 545.91 822.32 542.47 819.87 539.35 816.66 C 532.90 809.94 526.16 803.96 520.86 796.16 C 518.78 793.07 516.22 790.47 513.81 787.66 C 515.48 787.27 517.40 786.41 519.12 786.69 Z" fill="#000000" />
<path d="M 350.39 788.32 C 348.95 791.27 346.94 793.36 344.34 795.29 C 340.93 797.84 338.06 800.90 334.53 803.24 C 327.19 808.22 320.54 814.63 312.42 818.08 C 315.01 814.37 318.47 811.75 321.93 808.92 C 326.18 805.15 330.84 801.91 335.10 798.15 C 340.27 794.35 344.27 790.22 350.39 788.32 Z" fill="#000000" />
<path d="M 674.00 795.18 C 672.26 800.29 668.64 803.35 665.39 807.43 C 662.13 811.15 658.56 814.59 655.19 818.21 C 649.76 823.62 644.45 829.72 638.06 834.01 C 637.38 833.44 636.70 832.87 636.02 832.30 C 639.18 827.04 643.22 822.84 647.45 818.46 C 653.10 812.53 658.45 805.81 664.86 800.81 C 667.63 798.40 670.46 796.37 674.00 795.18 Z" fill="#000000" />
<path d="M 223.46 804.27 C 224.26 804.43 225.07 804.61 225.86 804.81 C 228.80 805.88 231.47 806.91 233.64 809.27 C 229.88 808.31 226.57 806.55 223.46 804.27 Z" fill="#000000" />
<path d="M 687.00 817.59 L 687.00 817.69 C 683.03 825.66 677.67 833.11 672.09 840.04 C 664.36 848.67 656.15 856.74 647.47 864.41 C 644.64 866.79 642.62 867.62 638.81 867.84 C 641.60 862.62 645.52 858.82 649.46 854.47 C 659.51 843.83 669.54 833.21 679.92 822.89 C 682.04 820.79 684.51 819.22 687.00 817.59 Z" fill="#000000" />
<path d="M 508.34 820.12 C 514.17 821.75 518.07 825.62 522.15 829.82 C 527.28 835.18 533.20 840.59 536.81 847.12 C 532.31 848.55 529.37 845.47 526.26 842.80 C 520.33 837.07 514.20 831.23 509.33 824.55 C 508.15 823.04 508.20 821.98 508.34 820.12 Z" fill="#000000" />
<path d="M 88.59 822.17 C 91.29 822.34 95.23 821.37 97.02 823.93 C 101.60 830.03 103.69 837.63 108.20 843.87 C 114.78 854.46 124.89 861.84 132.29 872.28 C 127.04 873.87 122.72 870.19 118.91 867.14 C 106.86 857.72 95.62 845.33 90.13 830.87 C 89.22 828.24 88.29 825.80 88.58 822.94 L 88.59 822.17 Z" fill="#000000" />
<path d="M 224.81 836.17 C 229.27 838.32 233.13 841.41 235.07 846.08 C 231.44 844.85 228.91 842.29 226.48 839.46 C 225.90 838.37 225.35 837.27 224.81 836.17 Z" fill="#000000" />
<path d="M 453.28 839.34 C 455.43 840.38 457.80 841.98 457.36 844.72 C 455.09 857.39 449.48 869.83 444.74 881.69 C 440.85 889.98 437.15 898.52 432.28 906.28 C 429.35 910.94 427.22 916.57 423.43 920.43 C 420.66 923.10 416.38 922.88 412.83 922.73 C 420.34 906.01 429.30 889.91 437.38 873.45 C 441.16 863.96 445.21 854.57 448.76 844.98 C 449.67 842.57 451.42 841.03 453.28 839.34 Z" fill="#000000" />
<path d="M 507.22 857.05 C 513.48 858.95 516.53 863.66 521.13 867.86 C 527.13 873.23 533.17 878.48 539.59 883.35 C 541.34 884.66 542.73 886.29 544.11 887.98 C 543.07 888.32 542.04 888.49 541.01 888.49 C 535.55 886.81 530.46 883.47 525.81 880.20 C 519.55 875.95 513.79 870.90 508.77 865.22 C 507.03 863.28 505.86 861.25 505.03 858.78 C 505.75 858.18 506.48 857.61 507.22 857.05 Z" fill="#000000" />
<path d="M 89.52 860.24 C 92.61 860.62 95.40 860.86 97.49 863.42 C 101.21 867.93 102.81 874.39 105.39 879.61 C 109.06 887.15 113.10 895.09 118.39 901.61 C 121.25 905.12 123.86 908.80 126.87 912.19 C 126.22 912.79 125.57 913.39 124.92 913.99 C 123.08 913.27 121.05 912.73 119.53 911.49 C 114.96 907.84 110.90 903.30 106.86 899.14 C 103.26 895.47 100.04 891.28 97.29 886.94 C 94.05 880.80 91.09 874.46 88.81 867.89 C 87.84 865.21 88.49 862.77 89.52 860.24 Z" fill="#000000" />
<path d="M 667.17 871.84 C 663.55 876.00 659.73 879.97 656.23 884.23 C 651.83 889.03 647.90 893.78 642.40 897.23 C 645.54 893.17 649.28 889.54 652.82 885.82 C 657.52 881.12 662.14 876.17 667.17 871.84 Z" fill="#000000" />
<path d="M 456.43 886.44 C 460.02 884.99 461.54 888.51 463.47 890.76 C 461.26 900.50 455.97 908.11 452.04 917.16 C 447.97 925.14 444.35 933.32 440.32 941.30 C 437.78 946.35 435.96 951.68 433.65 956.81 C 432.25 960.72 427.30 962.69 423.46 961.53 C 422.64 956.68 424.90 952.94 426.60 948.59 C 429.53 941.77 431.86 934.78 435.14 928.12 C 438.17 922.09 440.45 915.71 443.60 909.75 C 446.41 905.12 448.95 900.33 451.77 895.70 C 453.61 892.79 454.16 888.94 456.43 886.44 Z" fill="#000000" />
<path d="M 680.52 887.43 C 679.83 889.69 678.95 891.67 677.64 893.63 C 671.80 902.60 664.84 910.80 656.63 917.70 C 653.68 920.10 650.65 922.25 646.97 923.39 C 649.81 917.05 656.20 912.01 660.84 906.87 C 667.39 900.39 673.66 893.58 680.52 887.43 Z" fill="#000000" />
<path d="M 500.27 889.12 C 504.41 890.55 507.64 893.31 510.22 896.80 C 515.22 903.26 522.41 908.03 526.93 914.81 C 522.62 914.07 518.89 912.06 515.25 909.74 C 507.75 904.72 501.17 899.05 497.78 890.43 C 498.60 889.99 499.43 889.55 500.27 889.12 Z" fill="#000000" />
<path d="M 86.65 906.98 C 89.71 907.28 92.32 906.85 94.43 909.51 C 100.48 916.90 103.27 926.15 108.92 934.07 C 112.59 939.90 117.56 944.53 121.69 949.98 C 120.60 951.50 119.49 952.99 118.29 954.42 C 112.10 951.33 108.36 946.22 103.85 941.13 C 98.59 935.07 93.60 929.45 89.89 922.21 C 87.91 917.28 86.24 912.39 86.65 906.98 Z" fill="#000000" />
<path d="M 681.63 920.38 C 680.16 930.16 672.61 939.00 666.09 946.05 C 662.25 950.09 658.46 954.53 653.97 957.86 C 651.58 959.38 649.50 958.61 647.24 957.35 C 649.03 954.77 650.99 952.44 653.26 950.27 C 659.40 944.41 665.17 938.16 670.83 931.85 C 674.27 927.77 677.27 923.59 681.63 920.38 Z" fill="#000000" />
<path d="M 500.07 926.86 C 507.07 932.83 512.11 941.37 516.66 949.27 C 517.51 951.60 520.12 954.84 517.15 956.60 C 514.85 956.98 512.97 954.82 511.66 953.23 C 505.48 945.60 500.31 937.17 494.53 929.23 C 494.61 927.81 494.69 926.40 494.78 924.99 C 496.77 925.33 498.55 925.35 500.07 926.86 Z" fill="#000000" />
<path d="M 470.57 942.53 C 470.90 948.12 469.47 953.18 467.08 958.18 C 463.95 964.67 461.03 971.24 457.64 977.59 C 453.29 986.21 449.32 995.17 444.39 1003.48 C 442.91 1005.93 440.71 1005.45 438.24 1005.65 C 439.88 999.44 441.57 993.30 444.28 987.44 C 446.17 983.33 447.08 978.93 448.81 974.76 C 451.79 967.35 454.44 959.80 457.47 952.41 C 458.77 949.52 460.11 946.40 462.17 943.97 C 464.21 941.98 467.94 942.66 470.57 942.53 Z" fill="#000000" />
<path d="M 79.39 953.80 C 80.63 953.60 81.87 953.44 83.12 953.31 C 85.38 953.36 87.34 955.75 88.54 957.46 C 92.84 963.91 96.11 971.30 99.74 978.17 C 104.97 989.31 110.91 1000.07 115.95 1011.30 C 115.36 1012.29 114.78 1013.27 114.18 1014.26 C 106.63 1010.48 102.70 1002.64 97.99 996.08 C 91.40 984.79 84.95 972.90 80.22 960.70 C 79.37 958.82 79.46 956.90 79.40 954.88 L 79.39 953.80 Z" fill="#000000" />
<path d="M 685.31 955.62 C 684.15 958.29 682.98 960.98 681.62 963.56 C 676.33 972.94 671.57 982.22 664.11 990.13 C 659.82 994.54 655.21 999.98 649.55 1002.58 C 647.38 1003.45 646.36 1002.86 645.24 1000.88 C 647.90 996.32 652.15 992.58 655.76 988.75 C 661.86 982.28 668.30 975.86 673.72 968.81 C 677.63 964.03 680.27 959.23 685.31 955.62 Z" fill="#000000" />
<path d="M 491.21 963.96 C 497.63 967.32 500.50 974.33 504.46 979.99 C 503.74 980.85 503.01 981.70 502.29 982.55 C 501.01 982.57 499.74 982.58 498.47 982.59 C 494.34 978.45 490.26 973.40 488.39 967.80 C 487.40 965.83 490.19 965.20 491.21 963.96 Z" fill="#000000" />
<path d="M 683.43 1001.34 C 682.47 1004.27 681.46 1007.16 679.94 1009.86 C 674.92 1018.91 669.13 1027.57 662.66 1035.66 C 660.59 1038.33 657.92 1037.57 655.03 1037.18 C 657.70 1031.08 661.49 1025.76 665.62 1020.58 C 669.81 1014.54 674.06 1008.41 678.87 1002.84 C 680.16 1001.20 681.58 1001.45 683.43 1001.34 Z" fill="#000000" />
<path d="M 473.24 1006.84 C 474.25 1011.73 473.08 1017.28 472.25 1022.15 C 471.65 1024.92 471.06 1028.08 469.51 1030.48 C 468.65 1032.03 466.32 1031.62 464.77 1031.94 C 464.07 1030.40 463.40 1028.86 462.76 1027.29 C 463.66 1022.28 463.72 1016.94 465.05 1012.02 C 465.94 1009.87 466.36 1006.61 468.76 1005.67 C 470.55 1004.84 471.95 1005.54 473.24 1006.84 Z" fill="#000000" />
<path d="M 676.54 1044.32 C 676.18 1046.83 675.64 1049.17 674.28 1051.33 C 671.70 1055.67 668.94 1059.96 665.87 1063.96 C 664.52 1065.78 662.69 1066.80 660.68 1067.76 C 661.31 1063.74 663.76 1060.99 665.62 1057.52 C 668.62 1052.31 671.12 1047.44 676.54 1044.32 Z" fill="#000000" />
</svg>